<svg xmlns="http://www.w3.org/2000/svg" xmlns:xlink="http://www.w3.org/1999/xlink" width="26.667" height="34" viewBox="0 0 26.667 34">
  <defs>
    <filter id="icons8_chevron_left" x="0" y="0" width="26.667" height="34" filterUnits="userSpaceOnUse">
      <feOffset dy="3" input="SourceAlpha"/>
      <feGaussianBlur stdDeviation="3" result="blur"/>
      <feFlood flood-color="#1b2d49" flood-opacity="0.502"/>
      <feComposite operator="in" in2="blur"/>
      <feComposite in="SourceGraphic"/>
    </filter>
  </defs>
  <g transform="matrix(1, 0, 0, 1, 0, 0)" filter="url(#icons8_chevron_left)">
    <path id="icons8_chevron_left-2" data-name="icons8_chevron_left" d="M6.667,2H5.334a.667.667,0,0,0-.516,1.089L10.473,10,4.818,16.911A.666.666,0,0,0,5.334,18H6.667a.667.667,0,0,0,.516-.245l6-7.333a.668.668,0,0,0,0-.845l-6-7.333A.669.669,0,0,0,6.667,2Z" transform="translate(4.33 4)" fill="#6e93ad"/>
  </g>
</svg>

