<svg xmlns="http://www.w3.org/2000/svg" xmlns:xlink="http://www.w3.org/1999/xlink" width="26.667" height="34" viewBox="0 0 26.667 34">
  <defs>
    <filter id="icons8_chevron_left" x="0" y="0" width="26.667" height="34" filterUnits="userSpaceOnUse">
      <feOffset dy="3" input="SourceAlpha"/>
      <feGaussianBlur stdDeviation="3" result="blur"/>
      <feFlood flood-color="#1b2d49" flood-opacity="0.502"/>
      <feComposite operator="in" in2="blur"/>
      <feComposite in="SourceGraphic"/>
    </filter>
  </defs>
  <g transform="matrix(1, 0, 0, 1, 0, 0)" filter="url(#icons8_chevron_left)">
    <path id="icons8_chevron_left-2" data-name="icons8_chevron_left" d="M11.333,2h1.333a.667.667,0,0,1,.516,1.089L7.528,10,9.48,12.386l3.7,4.526A.666.666,0,0,1,12.667,18H11.333a.667.667,0,0,1-.516-.245l-6-7.333a.668.668,0,0,1,0-.845l6-7.333A.669.669,0,0,1,11.333,2Z" transform="translate(4.33 4)" fill="#fff"/>
  </g>
</svg>

