<svg xmlns="http://www.w3.org/2000/svg" width="16" height="16" viewBox="0 0 16 16">
  <path id="icons8_home_1" d="M10,1.333a.667.667,0,0,0-.466.19L2.262,7.471l-.025.02-.025.021h0a.666.666,0,0,0,.454,1.154h.667V16a1.333,1.333,0,0,0,1.333,1.333H15.333A1.333,1.333,0,0,0,16.667,16V8.667h.667a.667.667,0,0,0,.454-1.155l-.01-.008q-.022-.02-.046-.038L16.667,6.6V4A.667.667,0,0,0,16,3.333h-.667A.667.667,0,0,0,14.667,4v.96L10.452,1.512A.667.667,0,0,0,10,1.333ZM12,10h2.667v5.333H12Z" transform="translate(-2 -1.333)" fill="#8a8f93"/>
</svg>
