<svg xmlns="http://www.w3.org/2000/svg" width="16" height="11.97" viewBox="0 0 16 11.97">
  <g id="icons8_play_button" transform="translate(-1.596 -3.591)">
    <path id="Path_147" data-name="Path 147" d="M17.237,13.526a1.992,1.992,0,0,1-1.676,1.6,41.527,41.527,0,0,1-5.985.439,42.515,42.515,0,0,1-5.985-.439,1.992,1.992,0,0,1-1.676-1.6A23.353,23.353,0,0,1,1.6,9.576a23.353,23.353,0,0,1,.319-3.95,1.992,1.992,0,0,1,1.676-1.6,41.527,41.527,0,0,1,5.985-.439,42.017,42.017,0,0,1,5.985.439,1.992,1.992,0,0,1,1.676,1.6,22.635,22.635,0,0,1,.359,3.95A27.4,27.4,0,0,1,17.237,13.526Z" fill="#ff3d00"/>
    <path id="Path_148" data-name="Path 148" d="M7.98,12.369V6.783l4.788,2.793Z" fill="#fff"/>
  </g>
</svg>
